<mxfile host="app.diagrams.net" modified="2022-12-28T06:57:20.061Z" agent="5.0 (Windows NT 10.0; Win64; x64) AppleWebKit/537.36 (KHTML, like Gecko) Chrome/108.0.0.0 Safari/537.36" etag="kmxLNOe6owv_jfkXkY2l" version="20.7.4" type="github">
  <diagram name="Page-1" id="c7558073-3199-34d8-9f00-42111426c3f3">
    <mxGraphModel dx="2260" dy="764" grid="1" gridSize="10" guides="1" tooltips="1" connect="1" arrows="1" fold="1" page="1" pageScale="1" pageWidth="826" pageHeight="1169" background="none" math="0" shadow="0">
      <root>
        <mxCell id="0" />
        <mxCell id="1" parent="0" />
        <mxCell id="VayipNY_jWIWzbkccJyb-96" value="" style="shape=cylinder3;whiteSpace=wrap;html=1;boundedLbl=1;backgroundOutline=1;size=15;" vertex="1" parent="1">
          <mxGeometry x="210" y="450" width="546.25" height="130" as="geometry" />
        </mxCell>
        <mxCell id="VayipNY_jWIWzbkccJyb-97" value="CommandName_all_users" style="rounded=0;whiteSpace=wrap;html=1;fontStyle=1" vertex="1" parent="1">
          <mxGeometry x="581.25" y="520" width="170" height="25" as="geometry" />
        </mxCell>
        <mxCell id="VayipNY_jWIWzbkccJyb-98" value="CommandName" style="rounded=0;whiteSpace=wrap;html=1;fontStyle=1" vertex="1" parent="1">
          <mxGeometry x="396.25" y="520" width="170" height="25" as="geometry" />
        </mxCell>
        <mxCell id="VayipNY_jWIWzbkccJyb-99" value="" style="rounded=1;whiteSpace=wrap;html=1;" vertex="1" parent="1">
          <mxGeometry x="210" y="140" width="550" height="160" as="geometry" />
        </mxCell>
        <mxCell id="VayipNY_jWIWzbkccJyb-101" value="Superset" style="text;html=1;align=center;verticalAlign=middle;resizable=0;points=[];autosize=1;strokeColor=none;fillColor=none;fontSize=19;" vertex="1" parent="1">
          <mxGeometry x="430" y="95" width="100" height="40" as="geometry" />
        </mxCell>
        <mxCell id="VayipNY_jWIWzbkccJyb-102" value="Clickhouse&amp;nbsp;" style="text;html=1;align=center;verticalAlign=middle;resizable=0;points=[];autosize=1;strokeColor=none;fillColor=none;strokeWidth=1;fontSize=19;" vertex="1" parent="1">
          <mxGeometry x="421.25" y="580" width="120" height="40" as="geometry" />
        </mxCell>
        <mxCell id="VayipNY_jWIWzbkccJyb-106" value="CommandName&lt;span style=&quot;color: rgb(51, 51, 51); font-family: Inter, Helvetica, Arial; font-size: 14px; text-align: start; background-color: rgb(255, 255, 255);&quot;&gt;_DSCreator&lt;/span&gt;" style="rounded=0;whiteSpace=wrap;html=1;strokeWidth=1;fontSize=15;fontStyle=1" vertex="1" parent="1">
          <mxGeometry x="360" y="200" width="200" height="40" as="geometry" />
        </mxCell>
        <mxCell id="VayipNY_jWIWzbkccJyb-107" value="&lt;font style=&quot;font-size: 15px;&quot;&gt;CommandName&lt;span style=&quot;color: rgb(51, 51, 51); font-family: Inter, Helvetica, Arial; text-align: start; background-color: rgb(255, 255, 255);&quot;&gt;_&lt;/span&gt;&lt;/font&gt;&lt;span style=&quot;color: rgb(51, 51, 51); font-family: Inter, Helvetica, Arial; font-size: 14px; text-align: start; background-color: rgb(255, 255, 255);&quot;&gt;Reader&lt;/span&gt;" style="rounded=0;whiteSpace=wrap;html=1;strokeWidth=1;fontSize=15;fontStyle=1" vertex="1" parent="1">
          <mxGeometry x="571.25" y="150" width="180" height="40" as="geometry" />
        </mxCell>
        <mxCell id="VayipNY_jWIWzbkccJyb-108" value="&lt;span style=&quot;color: rgb(51, 51, 51); font-family: Inter, Helvetica, Arial; font-size: 14px; text-align: start; background-color: rgb(247, 247, 247);&quot;&gt;PublicReader&lt;/span&gt;" style="rounded=0;whiteSpace=wrap;html=1;strokeWidth=1;fontSize=15;fontStyle=1" vertex="1" parent="1">
          <mxGeometry x="218.75" y="241" width="120" height="40" as="geometry" />
        </mxCell>
        <mxCell id="VayipNY_jWIWzbkccJyb-109" value="default" style="rounded=0;whiteSpace=wrap;html=1;fontStyle=1;dashed=1;strokeWidth=2;" vertex="1" parent="1">
          <mxGeometry x="213.75" y="520" width="170" height="25" as="geometry" />
        </mxCell>
        <mxCell id="VayipNY_jWIWzbkccJyb-112" value="" style="rounded=1;whiteSpace=wrap;html=1;" vertex="1" parent="1">
          <mxGeometry x="-150" y="140" width="270" height="160" as="geometry" />
        </mxCell>
        <mxCell id="VayipNY_jWIWzbkccJyb-113" value="IDM" style="text;html=1;align=center;verticalAlign=middle;resizable=0;points=[];autosize=1;strokeColor=none;fillColor=none;fontSize=19;" vertex="1" parent="1">
          <mxGeometry x="-45" y="95" width="60" height="40" as="geometry" />
        </mxCell>
        <mxCell id="VayipNY_jWIWzbkccJyb-114" value="User" style="shape=umlActor;verticalLabelPosition=bottom;verticalAlign=top;html=1;outlineConnect=0;strokeWidth=1;fontSize=19;" vertex="1" parent="1">
          <mxGeometry x="-370" y="150" width="50" height="90" as="geometry" />
        </mxCell>
        <mxCell id="VayipNY_jWIWzbkccJyb-122" style="edgeStyle=orthogonalEdgeStyle;rounded=0;orthogonalLoop=1;jettySize=auto;html=1;exitX=1;exitY=0.5;exitDx=0;exitDy=0;entryX=0;entryY=0.5;entryDx=0;entryDy=0;dashed=1;fontSize=15;strokeWidth=2;" edge="1" parent="1" source="VayipNY_jWIWzbkccJyb-115" target="VayipNY_jWIWzbkccJyb-107">
          <mxGeometry relative="1" as="geometry" />
        </mxCell>
        <mxCell id="VayipNY_jWIWzbkccJyb-115" value="&lt;font style=&quot;font-size: 15px;&quot;&gt;CommandName&lt;span style=&quot;color: rgb(51, 51, 51); font-family: Inter, Helvetica, Arial; text-align: start; background-color: rgb(255, 255, 255);&quot;&gt;_&lt;/span&gt;&lt;/font&gt;&lt;span style=&quot;color: rgb(51, 51, 51); font-family: Inter, Helvetica, Arial; font-size: 14px; text-align: start; background-color: rgb(255, 255, 255);&quot;&gt;Reader&lt;/span&gt;" style="rounded=0;whiteSpace=wrap;html=1;strokeWidth=1;fontSize=15;fontStyle=1" vertex="1" parent="1">
          <mxGeometry x="-110" y="150" width="180" height="40" as="geometry" />
        </mxCell>
        <mxCell id="VayipNY_jWIWzbkccJyb-116" value="CommandName&lt;span style=&quot;color: rgb(51, 51, 51); font-family: Inter, Helvetica, Arial; font-size: 14px; text-align: start; background-color: rgb(255, 255, 255);&quot;&gt;_DSCreator&lt;/span&gt;" style="rounded=0;whiteSpace=wrap;html=1;strokeWidth=1;fontSize=15;fontStyle=1" vertex="1" parent="1">
          <mxGeometry x="-120" y="200" width="200" height="40" as="geometry" />
        </mxCell>
        <mxCell id="VayipNY_jWIWzbkccJyb-117" value="" style="endArrow=classic;html=1;rounded=0;fontSize=15;dashed=1;entryX=0;entryY=0.5;entryDx=0;entryDy=0;strokeWidth=2;" edge="1" parent="1" target="VayipNY_jWIWzbkccJyb-115">
          <mxGeometry relative="1" as="geometry">
            <mxPoint x="-320" y="200" as="sourcePoint" />
            <mxPoint x="-160" y="200" as="targetPoint" />
            <Array as="points">
              <mxPoint x="-240" y="200" />
            </Array>
          </mxGeometry>
        </mxCell>
        <mxCell id="VayipNY_jWIWzbkccJyb-120" value="" style="endArrow=classic;html=1;rounded=0;fontSize=15;dashed=1;entryX=0;entryY=0.5;entryDx=0;entryDy=0;strokeWidth=2;" edge="1" parent="1" target="VayipNY_jWIWzbkccJyb-116">
          <mxGeometry relative="1" as="geometry">
            <mxPoint x="-320" y="200" as="sourcePoint" />
            <mxPoint x="-110" y="170" as="targetPoint" />
            <Array as="points">
              <mxPoint x="-240" y="200" />
            </Array>
          </mxGeometry>
        </mxCell>
        <mxCell id="VayipNY_jWIWzbkccJyb-123" style="edgeStyle=orthogonalEdgeStyle;rounded=0;orthogonalLoop=1;jettySize=auto;html=1;exitX=1;exitY=0.5;exitDx=0;exitDy=0;dashed=1;fontSize=15;strokeWidth=2;" edge="1" parent="1" target="VayipNY_jWIWzbkccJyb-106">
          <mxGeometry relative="1" as="geometry">
            <mxPoint x="80" y="219.5" as="sourcePoint" />
            <mxPoint x="581.25" y="219.5" as="targetPoint" />
          </mxGeometry>
        </mxCell>
        <mxCell id="VayipNY_jWIWzbkccJyb-124" value="" style="endArrow=classic;html=1;rounded=0;dashed=1;fontSize=15;exitX=0.5;exitY=1;exitDx=0;exitDy=0;entryX=0.5;entryY=0;entryDx=0;entryDy=0;strokeWidth=2;" edge="1" parent="1" source="VayipNY_jWIWzbkccJyb-108" target="VayipNY_jWIWzbkccJyb-109">
          <mxGeometry width="50" height="50" relative="1" as="geometry">
            <mxPoint x="150" y="420" as="sourcePoint" />
            <mxPoint x="200" y="370" as="targetPoint" />
          </mxGeometry>
        </mxCell>
        <mxCell id="VayipNY_jWIWzbkccJyb-125" value="" style="endArrow=classic;html=1;rounded=0;dashed=1;fontSize=15;exitX=0.5;exitY=1;exitDx=0;exitDy=0;entryX=0.5;entryY=0;entryDx=0;entryDy=0;strokeWidth=2;" edge="1" parent="1" source="VayipNY_jWIWzbkccJyb-106" target="VayipNY_jWIWzbkccJyb-98">
          <mxGeometry width="50" height="50" relative="1" as="geometry">
            <mxPoint x="460" y="260" as="sourcePoint" />
            <mxPoint x="480" y="499" as="targetPoint" />
          </mxGeometry>
        </mxCell>
        <mxCell id="VayipNY_jWIWzbkccJyb-126" value="" style="endArrow=classic;html=1;rounded=0;dashed=1;fontSize=15;exitX=0.5;exitY=1;exitDx=0;exitDy=0;entryX=0.5;entryY=0;entryDx=0;entryDy=0;strokeWidth=2;" edge="1" parent="1" source="VayipNY_jWIWzbkccJyb-106" target="VayipNY_jWIWzbkccJyb-97">
          <mxGeometry x="-0.1864" y="52" width="50" height="50" relative="1" as="geometry">
            <mxPoint x="508.75" y="250" as="sourcePoint" />
            <mxPoint x="530" y="530" as="targetPoint" />
            <mxPoint as="offset" />
          </mxGeometry>
        </mxCell>
        <mxCell id="VayipNY_jWIWzbkccJyb-127" value="" style="endArrow=classic;html=1;rounded=0;dashed=1;fontSize=15;exitX=0.5;exitY=1;exitDx=0;exitDy=0;strokeWidth=2;entryX=0.5;entryY=0;entryDx=0;entryDy=0;" edge="1" parent="1" source="VayipNY_jWIWzbkccJyb-107" target="VayipNY_jWIWzbkccJyb-97">
          <mxGeometry x="-0.1864" y="52" width="50" height="50" relative="1" as="geometry">
            <mxPoint x="630" y="220" as="sourcePoint" />
            <mxPoint x="660" y="510" as="targetPoint" />
            <mxPoint as="offset" />
          </mxGeometry>
        </mxCell>
        <mxCell id="VayipNY_jWIWzbkccJyb-128" value="" style="endArrow=classic;html=1;rounded=0;dashed=1;fontSize=15;exitX=0.5;exitY=1;exitDx=0;exitDy=0;strokeWidth=2;entryX=0.5;entryY=0;entryDx=0;entryDy=0;" edge="1" parent="1" source="VayipNY_jWIWzbkccJyb-107" target="VayipNY_jWIWzbkccJyb-98">
          <mxGeometry x="-0.1864" y="52" width="50" height="50" relative="1" as="geometry">
            <mxPoint x="671.25" y="200" as="sourcePoint" />
            <mxPoint x="676.25" y="530" as="targetPoint" />
            <mxPoint as="offset" />
          </mxGeometry>
        </mxCell>
        <mxCell id="VayipNY_jWIWzbkccJyb-129" value="" style="endArrow=classic;html=1;rounded=0;dashed=1;strokeWidth=2;fontSize=15;" edge="1" parent="1" target="VayipNY_jWIWzbkccJyb-108">
          <mxGeometry relative="1" as="geometry">
            <mxPoint x="-320" y="200" as="sourcePoint" />
            <mxPoint x="-140" y="290" as="targetPoint" />
            <Array as="points">
              <mxPoint x="-240" y="260" />
            </Array>
          </mxGeometry>
        </mxCell>
        <mxCell id="VayipNY_jWIWzbkccJyb-133" value="" style="endArrow=classic;html=1;rounded=0;dashed=1;fontSize=15;exitX=0.5;exitY=1;exitDx=0;exitDy=0;strokeWidth=2;" edge="1" parent="1" source="VayipNY_jWIWzbkccJyb-108">
          <mxGeometry width="50" height="50" relative="1" as="geometry">
            <mxPoint x="288.75" y="291" as="sourcePoint" />
            <mxPoint x="670" y="520" as="targetPoint" />
          </mxGeometry>
        </mxCell>
      </root>
    </mxGraphModel>
  </diagram>
</mxfile>
